<?xml version="1.0"?>
<svg xmlns="http://www.w3.org/2000/svg" height="512px" viewBox="-31 0 479 479.98969" width="512px"><path d="m19.242188 215.390625 17.824218 35.65625c-8.464844 4.53125-13.378906 13.710937-12.457031 23.269531.921875 9.5625 7.496094 17.632813 16.671875 20.464844l6.402344 50.96875c-11.570313 4.449219-17.828125 16.992188-14.421875 28.910156 3.410156 11.917969 15.351562 19.261719 27.523437 16.921875l28.121094 28.121094c1.226562 8.273437 6.710938 15.296875 14.4375 18.5 7.726562 3.199219 16.570312 2.113281 23.289062-2.871094l42.585938 18.28125c2.628906 11.085938 12.707031 18.777344 24.089844 18.390625 11.386718-.390625 20.917968-8.753906 22.78125-19.992187 12.664062 21.9375 38.484375 32.628906 62.949218 26.066406 24.464844-6.558594 41.46875-28.734375 41.460938-54.066406 0-.375 0-.742188 0-1.117188 1.863281-.335937 3.695312-.761719 5.511719-1.25l.597656-.152343c1.640625-.453126 3.242187-.976563 4.800781-1.542969l1.25-.457031c1.40625-.542969 2.796875-1.117188 4.167969-1.75.574219-.257813 1.132813-.535157 1.695313-.800782 1.214843-.601562 2.398437-1.222656 3.597656-1.894531.699218-.394531 1.363281-.800781 2.042968-1.242187 1.03125-.640626 2.0625-1.269532 3.054688-1.960938.800781-.574219 1.601562-1.199219 2.398438-1.8125.800781-.617188 1.601562-1.203125 2.402343-1.859375 1.375-1.140625 2.703125-2.398437 4-3.621094.269531-.265625.542969-.519531.800781-.800781 1.351563-1.367188 2.644532-2.785156 3.878907-4.265625.398437-.480469.757812-.992187 1.144531-1.480469.902344-1.140625 1.789062-2.292968 2.613281-3.496094.425781-.605468.800781-1.238281 1.203125-1.863281.726563-1.128906 1.4375-2.269531 2.101563-3.445312.386719-.699219.753906-1.402344 1.113281-2.113281.601562-1.152344 1.167969-2.3125 1.695312-3.503907.335938-.761719.65625-1.519531.96875-2.296875.480469-1.195312.921876-2.398437 1.328126-3.617187.273437-.796875.535156-1.597657.800781-2.398438.375-1.265625.6875-2.542969.992187-3.832031.183594-.800781.382813-1.601562.542969-2.398438.28125-1.417968.472656-2.859374.664063-4.304687.085937-.703125.214843-1.402344.28125-2.113281.207031-2.167969.335937-4.359375.335937-6.582032.003906-6.847656-1.03125-13.652343-3.074219-20.1875 3.136719-2.925781 5.953125-6.175781 8.402344-9.703124 6.917969-8.515626 10.695312-19.160157 10.6875-30.136719h-.210938c.089844-1.328125.210938-2.652344.210938-4 .007812-6.761719-1.140625-13.476563-3.402344-19.855469 19.109375-11.230469 29.710938-32.746094 26.976563-54.742188-.078125-.65625-.199219-1.304687-.304688-1.960937-.226562-1.546875-.527343-3.070313-.894531-4.574219-.167969-.707031-.335938-1.394531-.535156-2.089844-.457032-1.601562-.992188-3.199218-1.601563-4.800781-.175781-.460937-.320312-.941406-.511719-1.398437-.824218-1.980469-1.761718-3.90625-2.808593-5.777344-.070313-.136719-.121094-.277344-.199219-.40625 4.78125-10.132812 7.265625-21.191406 7.28125-32.394531-.019531-2.960938-.203125-5.921875-.5625-8.863281-.117188-1.015626-.304688-2.007813-.460938-3.007813-.296874-1.863281-.640624-3.710937-1.066406-5.527344-.28125-1.199219-.582031-2.398437-.917968-3.558593-.449219-1.601563-.96875-3.089844-1.511719-4.609376-.441407-1.246093-.859375-2.503906-1.363281-3.71875-.636719-1.503906-1.375-2.953124-2.101563-4.410156-1.097656-2.214844-2.304687-4.371094-3.617187-6.464844-.632813-1.007812-1.246094-2.03125-1.917969-3.007812-.890625-1.277344-1.832031-2.511719-2.800781-3.734375-.800782-1.054687-1.695313-2.078125-2.585938-3.089844-.886719-1.007812-1.816406-2.078125-2.789062-3.070312-1.800782-1.847657-3.691407-3.605469-5.664063-5.265625l-.632813-.527344c-2.273437-1.835938-4.65625-3.542969-7.128906-5.101562-.160156-.105469-.296875-.234376-.464844-.335938 6.464844-17.199219 4.082032-36.476562-6.378906-51.582031-10.457031-15.109375-27.664062-24.121094-46.035156-24.125-5.574219-.003907-11.117188.835937-16.441406 2.488281-10.121094-16.351562-27.933594-26.355469-47.164063-26.484375s-37.179687 9.636719-47.515625 25.855469l.253906-1.777344-50.335937-7.199219c-3.242187-10.609375-13.367187-17.585937-24.433594-16.8398435-11.070312.7421875-20.167969 9.0117185-21.964843 19.9570315l-56.910157 49.800781c-4.304687-3.722656-9.800781-5.78125-15.488281-5.800781-11.222656-.035157-20.96875 7.726562-23.4375 18.671875-2.472656 10.949218 2.988281 22.140625 13.140625 26.929687l-19.761719 59.289063c-10.710937 2.757812-18.132812 12.503906-17.941406 23.566406.1875 11.0625 7.941406 20.546875 18.742188 22.9375zm15.550781-44.976563 19.761719-59.289062c.976562-.238281 1.941406-.535156 2.878906-.894531l41.824218 53.78125c-4.542968 3.058593-7.902343 7.574219-9.527343 12.800781l-43.367188 5.425781c-2.339843-5.183593-6.4375-9.375-11.570312-11.824219zm101.707031-123.871093v18.941406c-8.929688 3.109375-15.179688 11.203125-15.921875 20.628906-.746094 9.425781 4.15625 18.398438 12.488281 22.867188l-22.046875 44.105469-41.601562-53.511719c2.773437-4.6875 3.726562-10.230469 2.6875-15.578125l52.800781-46.207032c2.867188 4.046876 6.917969 7.101563 11.59375 8.753907zm27.078125 55.871093 15.320313 15.320313c-1.566407 3.199219-2.386719 6.714844-2.398438 10.277344 0 13.257812 10.742188 24 24 24 2.730469-.023438 5.4375-.523438 8-1.46875v50.941406c-7.21875-2.695313-15.304688-1.652344-21.601562 2.785156l-51.03125-25.511719c-1.539063-6.710937-5.890626-12.433593-11.945313-15.710937l25.824219-51.65625c5.527344-1.261719 10.429687-4.441406 13.832031-8.976563zm36.921875 17.597657c4.417969 0 8 3.582031 8 8 0 4.421875-3.582031 8-8 8s-8-3.578125-8-8c0-4.417969 3.582031-8 8-8zm-17.472656 216c-2.863282-8.058594-9.796875-13.984375-18.199219-15.558594l-20.800781-27.734375c0-.121094 0-.257812 0-.378906l59.519531-44.636719c1.6875-.210937 3.347656-.601563 4.953125-1.160156v89.46875zm-11.761719 101.058593-35.566406-15.242187c.507812-1.898437.773437-3.851563.800781-5.816406-.003906-1.609375-.167969-3.21875-.488281-4.796875l23.078125-34.632813 22.351562 50.296875c-4.355468 2.269532-7.910156 5.828125-10.175781 10.191406zm-77.847656-35.457031-18.457031-18.457031c3.554687-4.246094 5.511718-9.605469 5.539062-15.144531 0-.527344-.121094-1.023438-.160156-1.550781l58.152344-12.917969c1.972656 4.5 5.28125 8.285156 9.480468 10.847656l-21.480468 32.207031c-10.53125-7.710937-25.308594-5.464844-33.074219 5.023438zm-29.71875-56.367187-6.402344-50.96875c5.429687-2.1875 9.871094-6.28125 12.488281-11.511719l27.511719 10.976563c1.867187 7.839843 7.574219 14.199218 15.164063 16.90625 7.589843 2.703124 16.035156 1.382812 22.4375-3.507813l12.59375 16.800781c-4.796876 3.15625-8.300782 7.921875-9.882813 13.441406l-63.703125 14.152344c-2.816406-2.925781-6.328125-5.089844-10.207031-6.289062zm48.800781-169.234375c4.417969 0 8 3.582031 8 8 0 4.421875-3.582031 8-8 8s-8-3.578125-8-8c0-4.417969 3.582031-8 8-8zm20.964844 19.433593 44.058594 22.023438c-2.722657 8.835938.078124 18.445312 7.128906 24.433594l-44.066406 33.046875c-3.027344-4.601563-7.546876-8.015625-12.800782-9.679688l-6.550781-58.960937c5.222656-2.074219 9.554687-5.921875 12.230469-10.863282zm-12.964844 84.566407c4.417969 0 8 3.582031 8 8 0 4.421875-3.582031 8-8 8s-8-3.578125-8-8c0-4.417969 3.582031-8 8-8zm40 72c-4.417969 0-8-3.578125-8-8 0-4.417969 3.582031-8 8-8s8 3.582031 8 8c0 4.421875-3.582031 8-8 8zm40-120c-4.417969 0-8-3.578125-8-8 0-4.417969 3.582031-8 8-8s8 3.582031 8 8c0 4.421875-3.582031 8-8 8zm-56-152c4.417969 0 8 3.582031 8 8 0 4.421875-3.582031 8-8 8s-8-3.578125-8-8c0-4.417969 3.582031-8 8-8zm-96.90625 118.175781 42.640625-5.324219c2.671875 6.628907 8.160156 11.722657 14.96875 13.894531l6.550781 58.960938c-5.46875 2.171875-9.953125 6.28125-12.589844 11.542969l-27.464843-10.976563c-2.175781-8.808594-9.128907-15.636718-17.976563-17.648437l-17.792968-35.65625c5.742187-3.132813 9.957031-8.476563 11.664062-14.792969zm.90625 65.824219c4.417969 0 8 3.582031 8 8 0 4.421875-3.582031 8-8 8s-8-3.578125-8-8c0-4.417969 3.582031-8 8-8zm0 104c0-4.417969 3.582031-8 8-8s8 3.582031 8 8c0 4.421875-3.582031 8-8 8s-8-3.578125-8-8zm56 48c0-4.417969 3.582031-8 8-8s8 3.582031 8 8c0 4.421875-3.582031 8-8 8s-8-3.578125-8-8zm88 40c-4.417969 0-8-3.578125-8-8 0-4.417969 3.582031-8 8-8s8 3.582031 8 8c0 4.421875-3.582031 8-8 8zm5.511719-31.300781-26.457031-59.523438c5.34375-2.792969 9.4375-7.496094 11.472656-13.175781h25.472656v72c.011719 2.207031.152344 4.40625.421875 6.59375-3.058594-2.886719-6.820313-4.921875-10.910156-5.894531zm26.488281-368.699219c.027344-18.863281 13.234375-35.144531 31.6875-39.0625 18.453125-3.921875 37.136719 5.585937 44.832031 22.808593.871094 1.957032 2.492188 3.484376 4.5 4.238282 2.007813.75 4.234375.664062 6.179688-.238282 5.257812-2.464843 10.992187-3.746093 16.800781-3.746093 12.875-.066407 24.988281 6.101562 32.507812 16.550781 7.519532 10.453125 9.519532 23.894531 5.363282 36.082031-23.28125-8.535156-49.261719-5.140625-69.570313 9.085938-20.308593 14.226562-32.371093 37.488281-32.300781 62.28125h16c-.050781-20.769531 10.671875-40.078125 28.324219-51.019531 17.65625-10.941407 39.71875-11.949219 58.296875-2.667969 4.714844 2.355469 9.105468 5.316406 13.058594 8.800781.511718.457031 1.015624.90625 1.511718 1.375 1.414063 1.328125 2.742188 2.738281 4 4.183594.605469.699218 1.199219 1.402344 1.773438 2.121094 1.152344 1.449218 2.234375 2.9375 3.242187 4.480468.574219.878906 1.105469 1.785156 1.601563 2.6875.726562 1.257813 1.398437 2.527344 2.03125 3.832032.414062.847656.855468 1.679687 1.230468 2.554687.894532 2.085937 1.667969 4.222656 2.3125 6.398437.222657.71875.382813 1.472657.574219 2.214844.449219 1.738282.824219 3.5 1.121094 5.28125.121094.75.25 1.503906.34375 2.273438 1.191406 8.625.371094 17.40625-2.398437 25.660156-10.183594-9.105469-23.363282-14.152344-37.023438-14.175781v16c13.238281.011719 25.617188 6.574219 33.054688 17.53125.191406.277343.320312.582031.503906.863281 1.09375 1.695312 2.058594 3.472656 2.886718 5.3125.296876.664062.546876 1.351562.800782 2.03125.613281 1.609375 1.125 3.253906 1.527344 4.925781.167968.699219.351562 1.394531.488281 2.097657 3.632812 18.585937-6.4375 37.136718-24 44.222656-2.058594.855468-3.667969 2.53125-4.4375 4.621094-.773438 2.089843-.636719 4.410156.375 6.394531 7.117187 13.851562 6.339843 30.445312-2.039063 43.570312-7.449218 9.695313-19.800781 14.257813-31.761718 11.734375-11.960938-2.527344-21.414063-11.695312-24.304688-23.574218 26.59375-2.648438 46.863281-25.003907 46.90625-51.730469h-16c0 19.882812-16.117188 36-36 36s-36-16.117188-36-36h-16c.039062 24.273437 16.847656 45.300781 40.519531 50.683593 1.941407 13.890626 9.871094 26.238282 21.703125 33.78125 11.828125 7.542969 26.367188 9.519532 39.785156 5.417969 1.316407 4.589844 1.988282 9.34375 1.992188 14.117188 0 1.761719-.097656 3.496093-.265625 5.210937-.054687.582032-.175781 1.144532-.253906 1.71875-.144531 1.128906-.289063 2.257813-.515625 3.351563-.132813.664062-.316406 1.304687-.476563 1.953125-.242187.992187-.464843 1.984375-.761719 2.941406-.207031.691406-.480468 1.355469-.710937 2.035156-.320313.894532-.625 1.796875-.984375 2.671875-.28125.679688-.617188 1.335938-.929688 2.007813-.390624.800781-.796874 1.664062-1.191406 2.472656-.359375.671875-.800781 1.320312-1.160156 1.984375-.359375.660156-.871094 1.503906-1.351562 2.230469-.480469.726562-.9375 1.320312-1.40625 1.96875-.472657.648437-.960938 1.328125-1.472657 1.96875-.511719.636718-1.121093 1.316406-1.695312 1.957031-.578125.640625-.992188 1.128906-1.511719 1.664063-.65625.679687-1.355469 1.328124-2.050781 1.96875-.480469.449218-.949219.894531-1.445313 1.320312-.800781.6875-1.601562 1.335938-2.480468 1.976562-.425782.320313-.839844.648438-1.273438.953126-.976562.6875-1.96875 1.335937-2.992188 1.957031l-1 .609375c-1.144531.664062-2.328124 1.289062-3.527343 1.863281l-.671875.328125c-1.339844.613281-2.703125 1.179688-4.097656 1.695312l-.300782.105469c-4.71875 1.675781-9.652344 2.664063-14.648437 2.9375h-.042969c-.925781.054688-1.847656.140625-2.78125.140625-28.703125-.035156-51.960938-23.289062-52-51.992187h-16c.042969 35.972656 28.089844 65.6875 64 67.800781v.199219c0 22.09375-17.910156 40-40 40-22.09375 0-40-17.90625-40-40zm-16 0v49.472656c-5.957031-2.246094-12.585938-1.910156-18.28125.9375l-22.097656-22.097656c-1.355469-8.667969-7.351563-15.898438-15.621094-18.839844v-18.941406c6.457031-2.285157 11.632812-7.21875 14.222656-13.5625l44.320313 6.335937c-1.6875 5.40625-2.546875 11.035156-2.542969 16.695313zm-64-40c4.417969 0 8 3.582031 8 8 0 4.421875-3.582031 8-8 8s-8-3.578125-8-8c0-4.417969 3.582031-8 8-8zm-96 64c4.417969 0 8 3.582031 8 8 0 4.421875-3.582031 8-8 8s-8-3.578125-8-8c0-4.417969 3.582031-8 8-8zm-24 104c4.417969 0 8 3.582031 8 8 0 4.421875-3.582031 8-8 8s-8-3.578125-8-8c0-4.417969 3.582031-8 8-8zm0 0" fill="#616161"/></svg>
