<?xml version="1.0" encoding="UTF-8" standalone="no"?>
<!-- Generator: Adobe Illustrator 19.0.0, SVG Export Plug-In . SVG Version: 6.00 Build 0)  -->

<svg
   xmlns:dc="http://purl.org/dc/elements/1.1/"
   xmlns:cc="http://creativecommons.org/ns#"
   xmlns:rdf="http://www.w3.org/1999/02/22-rdf-syntax-ns#"
   xmlns:svg="http://www.w3.org/2000/svg"
   xmlns="http://www.w3.org/2000/svg"
   xmlns:sodipodi="http://sodipodi.sourceforge.net/DTD/sodipodi-0.dtd"
   xmlns:inkscape="http://www.inkscape.org/namespaces/inkscape"
   version="1.1"
   id="Layer_1"
   x="0px"
   y="0px"
   viewBox="0 0 512 512"
   style="enable-background:new 0 0 512 512;"
   xml:space="preserve"
   sodipodi:docname="computerSienceIconBW.svg"
   inkscape:version="0.92.4 (5da689c313, 2019-01-14)"><metadata
   id="metadata85"><rdf:RDF><cc:Work
       rdf:about=""><dc:format>image/svg+xml</dc:format><dc:type
         rdf:resource="http://purl.org/dc/dcmitype/StillImage" /></cc:Work></rdf:RDF></metadata><defs
   id="defs83" /><sodipodi:namedview
   pagecolor="#ffffff"
   bordercolor="#666666"
   borderopacity="1"
   objecttolerance="10"
   gridtolerance="10"
   guidetolerance="10"
   inkscape:pageopacity="0"
   inkscape:pageshadow="2"
   inkscape:window-width="640"
   inkscape:window-height="480"
   id="namedview81"
   showgrid="false"
   inkscape:zoom="0.4609375"
   inkscape:cx="256"
   inkscape:cy="256"
   inkscape:window-x="0"
   inkscape:window-y="0"
   inkscape:window-maximized="0"
   inkscape:current-layer="Layer_1" />
<g
   id="g6"
   style="fill:#f9f9f9">
	<g
   id="g4"
   style="fill:#f9f9f9">
		<path
   d="M501.344,32H10.656C4.781,32,0,36.773,0,42.664V384c0,5.891,4.781,10.664,10.656,10.664h177.031l-12.766,64h-4.266    c-5.875,0-10.656,4.781-10.656,10.672S164.781,480,170.656,480h170.688c5.875,0,10.656-4.773,10.656-10.664    s-4.781-10.672-10.656-10.672h-4.281l-12.781-64h177.062c5.875,0,10.656-4.773,10.656-10.664V42.664    C512,36.773,507.219,32,501.344,32z M196.688,458.665L196.688,458.665l12.75-63.915l93.094-0.023l12.781,63.938H196.688z     M490.656,373.336H256H21.344V352H256h234.656V373.336z M490.656,330.664H21.344V53.336h469.312V330.664z"
   id="path2"
   style="fill:#f9f9f9" />
	</g>
</g>
<g
   id="g12"
   style="fill:#ffffff">
	<g
   id="g10"
   style="fill:#ffffff">
		<path
   d="M256,352c-5.89,0-10.656,4.773-10.656,10.664s4.766,10.672,10.656,10.672s10.656-4.781,10.656-10.672S261.89,352,256,352z    "
   id="path8"
   style="fill:#ffffff" />
	</g>
</g>
<g
   id="g18"
   style="fill:#ffffff">
	<g
   id="g16"
   style="fill:#ffffff">
		<path
   d="M373.344,74.664h-320c-5.906,0-10.688,4.781-10.688,10.672S47.438,96,53.344,96h319.969c0,0,0.016,0,0.031,0    C379.219,96,384,91.227,384,85.336S379.219,74.664,373.344,74.664z"
   id="path14"
   style="fill:#ffffff" />
	</g>
</g>
<g
   id="g24"
   style="fill:#ffffff">
	<g
   id="g22"
   style="fill:#ffffff">
		<path
   d="M224.001,117.336H53.344c-5.906,0-10.688,4.773-10.688,10.664s4.782,10.664,10.688,10.664h170.641    c0.016,0,0.016,0,0.016,0c5.891,0,10.656-4.773,10.656-10.664S229.891,117.336,224.001,117.336z"
   id="path20"
   style="fill:#ffffff" />
	</g>
</g>
<g
   id="g30"
   style="fill:#ffffff">
	<g
   id="g28"
   style="fill:#ffffff">
		<path
   d="M288,160H53.344c-5.906,0-10.688,4.773-10.688,10.664c0,5.898,4.782,10.672,10.688,10.672h234.641    c0.016,0,0.016,0,0.016,0c5.891,0,10.656-4.773,10.656-10.664S293.891,160,288,160z"
   id="path26"
   style="fill:#ffffff" />
	</g>
</g>
<g
   id="g36"
   style="fill:#ffffff">
	<g
   id="g34"
   style="fill:#ffffff">
		<path
   d="M202.656,202.672l-149.312-0.008c-5.906,0-10.688,4.781-10.688,10.672S47.438,224,53.344,224h149.312    c5.906,0,10.688-4.773,10.688-10.664S208.563,202.672,202.656,202.672z"
   id="path32"
   style="fill:#ffffff" />
	</g>
</g>
<g
   id="g42"
   style="fill:#ffffff">
	<g
   id="g40"
   style="fill:#ffffff">
		<path
   d="M330.656,245.336H53.344c-5.906,0-10.688,4.773-10.688,10.664s4.782,10.664,10.688,10.664h277.312v0.008    c5.906,0,10.688-4.781,10.688-10.672S336.563,245.336,330.656,245.336z"
   id="path38"
   style="fill:#ffffff" />
	</g>
</g>
<g
   id="g48"
   style="fill:#ffffff">
	<g
   id="g46"
   style="fill:#ffffff">
		<path
   d="M138.656,288H53.344c-5.906,0-10.688,4.773-10.688,10.664c0,5.898,4.782,10.672,10.688,10.672h85.312    c5.906,0,10.688-4.773,10.688-10.664S144.562,288,138.656,288z"
   id="path44"
   style="fill:#ffffff" />
	</g>
</g>
<g
   id="g50">
</g>
<g
   id="g52">
</g>
<g
   id="g54">
</g>
<g
   id="g56">
</g>
<g
   id="g58">
</g>
<g
   id="g60">
</g>
<g
   id="g62">
</g>
<g
   id="g64">
</g>
<g
   id="g66">
</g>
<g
   id="g68">
</g>
<g
   id="g70">
</g>
<g
   id="g72">
</g>
<g
   id="g74">
</g>
<g
   id="g76">
</g>
<g
   id="g78">
</g>
</svg>