<?xml version="1.0" encoding="UTF-8" standalone="no"?>
<svg
   xmlns:dc="http://purl.org/dc/elements/1.1/"
   xmlns:cc="http://creativecommons.org/ns#"
   xmlns:rdf="http://www.w3.org/1999/02/22-rdf-syntax-ns#"
   xmlns:svg="http://www.w3.org/2000/svg"
   xmlns="http://www.w3.org/2000/svg"
   xmlns:sodipodi="http://sodipodi.sourceforge.net/DTD/sodipodi-0.dtd"
   xmlns:inkscape="http://www.inkscape.org/namespaces/inkscape"
   viewBox="0 -33 511.99937 511"
   version="1.1"
   id="svg10"
   sodipodi:docname="robotic-arm (2).svg"
   inkscape:version="0.92.4 (5da689c313, 2019-01-14)">
  <metadata
     id="metadata16">
    <rdf:RDF>
      <cc:Work
         rdf:about="">
        <dc:format>image/svg+xml</dc:format>
        <dc:type
           rdf:resource="http://purl.org/dc/dcmitype/StillImage" />
      </cc:Work>
    </rdf:RDF>
  </metadata>
  <defs
     id="defs14" />
  <sodipodi:namedview
     pagecolor="#ffffff"
     bordercolor="#666666"
     borderopacity="1"
     objecttolerance="10"
     gridtolerance="10"
     guidetolerance="10"
     inkscape:pageopacity="0"
     inkscape:pageshadow="2"
     inkscape:window-width="640"
     inkscape:window-height="480"
     id="namedview12"
     showgrid="false"
     inkscape:zoom="0.46183953"
     inkscape:cx="255.99968"
     inkscape:cy="255.5"
     inkscape:window-x="0"
     inkscape:window-y="0"
     inkscape:window-maximized="0"
     inkscape:current-layer="svg10" />
  <path
     d="m230.125 92.128906c11.316406 0 22.117188-6.597656 26.90625-17.621094v-.003906c6.425781-14.8125-.394531-32.09375-15.203125-38.523437-7.175781-3.113281-15.136719-3.246094-22.410156-.375-7.277344 2.871093-13 8.402343-16.113281 15.582031-6.429688 14.8125.390624 32.09375 15.203124 38.523438 3.785157 1.640624 7.730469 2.417968 11.617188 2.417968zm-13.0625-34.972656c1.519531-3.5 4.308594-6.195312 7.859375-7.597656 1.699219-.671875 3.472656-1.003906 5.246094-1.003906 1.929687 0 3.859375.394531 5.683593 1.1875 7.226563 3.136718 10.554688 11.566406 7.417969 18.792968-3.136719 7.222656-11.566406 10.550782-18.789062 7.414063-7.226563-3.136719-10.554688-11.566407-7.417969-18.792969zm0 0"
     id="path2"
     style="fill:#ffffff" />
  <path
     d="m151.996094 242.945312c-7.175782-3.113281-15.136719-3.25-22.410156-.378906-7.277344 2.871094-13 8.40625-16.113282 15.582032-3.117187 7.175781-3.25 15.132812-.378906 22.410156s8.40625 13 15.582031 16.113281c3.785157 1.644531 7.730469 2.421875 11.617188 2.421875 11.316406 0 22.117187-6.597656 26.90625-17.625 3.113281-7.175781 3.246093-15.132812.375-22.410156-2.871094-7.277344-8.402344-13-15.578125-16.113282zm1.441406 32.550782c-3.136719 7.222656-11.5625 10.550781-18.792969 7.414062-3.5-1.519531-6.195312-4.308594-7.597656-7.859375-1.402344-3.546875-1.335937-7.429687.183594-10.933593 1.519531-3.5 4.3125-6.195313 7.859375-7.597657 1.699218-.671875 3.472656-1.003906 5.246094-1.003906 1.933593 0 3.859374.394531 5.6875 1.1875 3.5 1.519531 6.199218 4.308594 7.597656 7.859375 1.402344 3.550781 1.335937 7.433594-.183594 10.933594zm0 0"
     id="path4"
     style="fill:#ffffff" />
  <path
     d="m423.976562 134.78125c9.753907-12.867188 7.21875-31.273438-5.648437-41.027344-12.871094-9.753906-31.277344-7.21875-41.03125 5.652344-9.753906 12.867188-7.21875 31.273438 5.652344 41.027344 5.277343 4 11.488281 5.933594 17.652343 5.933594 8.863282 0 17.621094-3.996094 23.375-11.585938zm-11.953124-9.058594c-2.304688 3.039063-5.65625 5.003906-9.4375 5.523438-3.777344.519531-7.535157-.460938-10.578126-2.769532-6.277343-4.757812-7.511718-13.734374-2.753906-20.011718 2.804688-3.703125 7.078125-5.652344 11.398438-5.652344 3.007812 0 6.039062.945312 8.613281 2.894531 6.277344 4.761719 7.515625 13.738281 2.757813 20.015625zm0 0"
     id="path6"
     style="fill:#ffffff" />
  <path
     d="m509.003906 195.535156-10.28125-19.921875c-4.546875-8.808593-10.824218-16.320312-18.652344-22.320312-3.289062-2.519531-7.996093-1.894531-10.515624 1.394531-2.519532 3.285156-1.898438 7.996094 1.390624 10.511719 6.0625 4.644531 10.921876 10.464843 14.449219 17.296875l10.277344 19.917968c1.445313 2.800782 3.398437 11.402344-5.078125 15.90625-8.476562 4.503907-14.460938-2.277343-15.90625-5.078124l-10.277344-19.921876c-7.117187-13.789062-24.285156-19.519531-37.921875-12.105468-19.621093 10.667968-15.554687 31.25-12.109375 37.925781l10.28125 19.917969c2.984375 5.785156.707032 12.921875-5.078125 15.90625-5.785156 2.984375-12.921875.707031-15.90625-5.078125l-10.28125-19.921875c-8.230469-15.953125-7.589843-34.753906 1.457031-50.0625 17.5625 2.148437 68.875-7.222656 68.875-62.808594 0-34.785156-28.300781-63.085938-63.085937-63.085938-8.953125 0-17.472656 1.886719-25.195313 5.265626l-91.871093-28.667969c-6.714844-11.015625-16.589844-19.683594-28.605469-24.898438-14.910156-6.472656-31.566406-6.925781-46.90625-1.277343-3.886719 1.429687-5.878906 5.742187-4.445312 9.628906 1.429687 3.886718 5.738281 5.878906 9.628906 4.445312 11.703125-4.308594 24.398437-3.964844 35.75.960938 24.347656 10.566406 35.558594 38.972656 24.988281 63.320312l-89.15625 205.410156c-10.570313 24.347657-38.976563 35.558594-63.320313 24.992188-24.347656-10.570312-35.558593-38.976562-24.992187-63.320312l89.160156-205.410157c1.878907-4.335937 4.375-8.34375 7.410157-11.917969 2.683593-3.15625 2.296874-7.886718-.859376-10.570312-3.152343-2.683594-7.886718-2.296875-10.570312.859375-3.992188 4.699219-7.269531 9.964844-9.738281 15.652344l-74.214844 170.980469c-35.972656 16.703124-59 52.464843-59 92.207031v61.648437c-21.59375 1.511719-38.703125 19.550782-38.703125 41.519532 0 22.957031 18.675781 41.636718 41.636719 41.636718h197.398437c22.957032 0 41.632813-18.679687 41.632813-41.636718 0-21.96875-17.109375-40.007813-38.699219-41.519532v-61.648437c0-21.839844-7.171875-43.226563-20.277344-60.734375l49.589844-114.242188 75.773438 23.644532c7.507812 12.054687 18.960937 21.40625 32.550781 26.226562-9.394531 18.886719-9.40625 41.164062.460937 60.28125l10.277344 19.921875c4.757812 9.214844 19.078125 19.828125 36.113281 11.527344 6.4375-3.136719 21.265625-14.828125 11.53125-36.113281l-10.28125-19.921876c-1.605469-3.113281-3.265625-12.566406 5.65625-17.714843 6.277344-3.621094 14.394531-.785157 17.714844 5.65625l10.28125 19.921875c6.777344 13.132812 22.976563 18.304687 36.113281 11.527344 6.363282-3.285157 11.066406-8.847657 13.242188-15.667969 2.179687-6.824219 1.570312-14.082031-1.710938-20.445313zm-282.035156 106.132813v61.535156h-26.480469c-4.140625 0-7.5 3.355469-7.5 7.5 0 4.140625 3.359375 7.5 7.5 7.5h38.546875c14.683594 0 26.632813 11.945313 26.632813 26.636719 0 14.683594-11.949219 26.632812-26.632813 26.632812h-197.398437c-14.6875 0-26.636719-11.949218-26.636719-26.636718s11.949219-26.632813 26.636719-26.632813h129.375c4.144531 0 7.5-3.359375 7.5-7.5 0-4.144531-3.355469-7.5-7.5-7.5h-117.3125v-61.535156c0-27.277344 12.742187-52.359375 33.726562-68.53125l-4.667969 10.757812c-13.863281 31.933594.839844 69.191407 32.773438 83.054688 8.164062 3.542969 57.609375 22.164062 83.054688-32.777344l16.015624-36.902344c8.023438 13.375 12.367188 28.75 12.367188 44.398438zm50.316406-188.816407 10.460938-24.09375c5.542968-12.769531 6.660156-26.730468 3.355468-40.089843l67.820313 21.160156c-13.09375 11.570313-21.371094 28.464844-21.371094 47.265625 0 5.21875.652344 10.285156 1.851563 15.140625zm75.265625 4.242188c0-26.515625 21.570313-48.085938 48.085938-48.085938s48.085937 21.570313 48.085937 48.085938-21.570312 48.085938-48.085937 48.085938-48.085938-21.570313-48.085938-48.085938zm0 0"
     id="path8"
     style="fill:#ffffff" />
</svg>
